<svg xmlns="http://www.w3.org/2000/svg" xmlns:xlink="http://www.w3.org/1999/xlink" width="61.506" height="91.4" viewBox="0 0 61.506 91.4">
  <defs>
    <clipPath id="clip-path">
      <rect width="61.506" height="91.4" fill="none"/>
    </clipPath>
  </defs>
  <g id="noun_Strawberry_203649" clip-path="url(#clip-path)">
    <path id="Path_1" data-name="Path 1" d="M64.8,30.3a11.483,11.483,0,0,0-1.9-.1,10.658,10.658,0,0,0,3.7-3.6c1.6-3.1.5-7.2-1.5-9.3a1.374,1.374,0,0,0-1.2-.4,1.445,1.445,0,0,0-1,.7c-1.1,2.1-5.3,4.5-8.3,6.3a10.837,10.837,0,0,0-3,2.6,6.882,6.882,0,0,0-.2-1.3,23.583,23.583,0,0,0-3.9-7.6c.7-11,6-11.5,6.3-11.6a1.075,1.075,0,0,0,1-1,1,1,0,0,0-1-1c-.3,0-6.7.3-8,11.6h-.2a1.689,1.689,0,0,0-1,.3l-.3.2a13.659,13.659,0,0,0-4.5,6.2,8.078,8.078,0,0,0,.1,5.1A21.424,21.424,0,0,1,37,24.1c-.2-.3-.5-.7-.7-1-1.8-2.6-3.8-5.4-8.7-6.3a16,16,0,0,0-3.8,0,1.149,1.149,0,0,0-.9.6,1.376,1.376,0,0,0-.1,1.1c.4.9,1.8,4.1,3.3,6.7A12.536,12.536,0,0,0,29.5,29a15.189,15.189,0,0,0-10,3.2,13.455,13.455,0,0,0-4.7,10.4,39.571,39.571,0,0,0,3.6,18.2c.4,1,.8,2,1.2,3.1,4.1,11,16.5,31.5,25.5,31.5,7.6,0,13.8-8.6,17.5-13.7l.3-.5c3.3-4.6,13.3-23.7,13.4-33.3C76.4,37.5,72.3,31.2,64.8,30.3Zm-9.2-4.7c3.8-2.2,7.1-4.2,8.6-6.3,1.1,1.6,1.8,4.3.7,6.4s-5.3,4.3-7,5a25.578,25.578,0,0,0-2.7.5c-1.4.3-2.9.5-4.2.7C51.6,30.1,52.9,27.1,55.6,25.6ZM41.7,22.9a11.223,11.223,0,0,1,3.7-5.1c.1.1.2.2.2.3a1.794,1.794,0,0,0,.5.7,20.09,20.09,0,0,1,3.4,6.7c.4,1.8-.1,3.8-1.6,6.2a2.2,2.2,0,0,1-.8-.1c-.1,0-1.3-.2-3-.5C43.6,30.6,40.5,26.6,41.7,22.9ZM27.8,24.2c-1.1-1.9-2.2-4.2-2.8-5.5a14.083,14.083,0,0,1,2.1.1c4.1.8,5.7,2.9,7.4,5.5a7.632,7.632,0,0,0,.8,1.1,43.443,43.443,0,0,0,5.1,5.4,16.958,16.958,0,0,1-2.2-.4C35.4,29.9,30.5,28.8,27.8,24.2ZM61.3,80.1l-.3.5c-3.5,4.8-9.3,12.9-15.9,12.9-7.2,0-19.1-18.1-23.6-30.2-.4-1.1-.8-2.1-1.2-3.1a39.726,39.726,0,0,1-3.5-17.5,11.272,11.272,0,0,1,3.9-8.9A12.917,12.917,0,0,1,28.9,31a15.04,15.04,0,0,1,2.9.3c1.6.3,3.8.7,6.2,1.1.2,0,.4.1.6.1h0c4.2.7,8.2,1.3,8.3,1.3h0a26.041,26.041,0,0,0,8.8-.7,29.28,29.28,0,0,1,8.9-.8c4.941.61,7.5,3.825,8.813,8.06A25.692,25.692,0,0,1,74.3,48C74.3,56.6,65.1,75,61.3,80.1Zm-14.2-34a.488.488,0,0,1-.9,0c-1-1.7-2-5.8.5-5.8C49.4,40.3,48.1,44.4,47.1,46.1ZM35.8,53.9a.488.488,0,0,1-.9,0c-1.1-1.7-2.3-5.7.2-5.9C37.7,48,36.7,52.1,35.8,53.9ZM47,60a.488.488,0,0,1-.9,0c-1-1.7-2-5.8.5-5.8C49.2,54.2,48,58.3,47,60Zm-.1,16.5a.562.562,0,0,1-.9,0c-.9-1.6-1.9-5.4.4-5.4C49,71.2,47.8,74.9,46.9,76.5ZM58.3,54c-.2.3-.8.3-.9-.1-.8-1.8-1.4-6,1.1-5.7C61.2,48.4,59.5,52.4,58.3,54Zm11.8,1c-.2.3-.8.3-.9-.1-.8-1.8-1.4-6,1.1-5.8C72.9,49.4,71.3,53.4,70.1,55Zm-49-7.9c2.5-.3,1.9,3.9,1.1,5.7a.523.523,0,0,1-.9.1C20.1,51.4,18.4,47.4,21.1,47.1Zm7.5,11.1c2.5-.3,2,3.9,1.2,5.7-.2.4-.7.5-.9.1C27.7,62.4,25.9,58.5,28.6,58.2ZM64,64a.526.526,0,0,1-.9-.2c-.7-1.9-1-6.1,1.4-5.7C67.2,58.7,65.3,62.5,64,64ZM58.3,40.2c-.2.3-.8.3-.9-.1-.8-1.8-1.5-6,1-5.8C61,34.6,59.4,38.6,58.3,40.2Zm-22.5.9a.523.523,0,0,1-.9.1c-1.1-1.7-2.5-5.7,0-5.9C37.5,35.1,36.7,39.3,35.8,41.1Zm3.6,27.6a.487.487,0,0,1-.8.2c-1.2-1.4-2.8-4.9-.6-5.3C40.4,63.1,40,67,39.4,68.7Zm-3.2,9.9a.487.487,0,0,1-.8.2c-1.2-1.4-2.8-5-.5-5.4C37.3,72.9,36.8,76.9,36.2,78.6Zm7,7.8a.468.468,0,0,1-.8,0c-.9-1.4-1.8-4.6.2-4.7C44.8,81.7,43.9,85,43.2,86.4Zm14.7-13c2.2.6.3,4-1,5.3a.477.477,0,0,1-.8-.2C55.7,76.7,55.5,72.8,57.9,73.4Zm-8.2,8.2c2,.2.8,3.4-.2,4.7-.2.3-.6.2-.8-.1C48.1,84.7,47.5,81.3,49.7,81.6Zm6.6-18c2.2.4.7,3.9-.5,5.3a.47.47,0,0,1-.8-.1C54.3,67,53.9,63.2,56.3,63.6ZM26.5,44.2a.523.523,0,0,1-.9.1c-1.1-1.6-2.5-5.6,0-5.9C28.2,38.2,27.4,42.3,26.5,44.2Zm40.8.1a.526.526,0,0,1-.9-.2c-.7-1.9-.9-6.1,1.6-5.6C70.6,39,68.6,42.7,67.3,44.3Z" transform="translate(-14.796 -4)" fill="#ee2466"/>
  </g>
</svg>
